<svg xmlns="http://www.w3.org/2000/svg" xmlns:xlink="http://www.w3.org/1999/xlink" zoomAndPan="magnify" viewBox="232 648 1084 146" preserveAspectRatio="xMidYMid meet" version="1.0"><defs><g/><clipPath id="2759d29e3e"><rect x="0" width="277" y="0" height="57"/></clipPath></defs><path stroke-linecap="butt" transform="matrix(0, -0.75, 0.75, 0, 563.541129, 786.956624)" fill="none" stroke-linejoin="miter" d="M -0.000542711 1.502453 L 173.947389 1.502453 " stroke="#c4a265" stroke-width="3" stroke-opacity="1" stroke-miterlimit="4"/><g fill="#1a1a1a" fill-opacity="1"><g transform="translate(608.478378, 723.928502)"><g><path d="M 75.078125 -1.109375 C 75.253906 -1.109375 75.34375 -0.921875 75.34375 -0.546875 C 75.34375 -0.179688 75.253906 0 75.078125 0 C 73.109375 0 71.539062 -0.03125 70.375 -0.09375 L 64.03125 -0.1875 L 57.875 -0.09375 C 56.882812 -0.03125 55.503906 0 53.734375 0 C 53.609375 0 53.546875 -0.179688 53.546875 -0.546875 C 53.546875 -0.921875 53.609375 -1.109375 53.734375 -1.109375 C 55.816406 -1.109375 57.347656 -1.273438 58.328125 -1.609375 C 59.304688 -1.941406 59.960938 -2.535156 60.296875 -3.390625 C 60.640625 -4.253906 60.75 -5.609375 60.625 -7.453125 L 58.875 -48.390625 L 38.265625 -0.640625 C 38.148438 -0.398438 37.90625 -0.28125 37.53125 -0.28125 C 37.226562 -0.28125 36.953125 -0.398438 36.703125 -0.640625 L 13.984375 -48.203125 L 13.25 -10.296875 C 13.1875 -7.046875 13.753906 -4.703125 14.953125 -3.265625 C 16.148438 -1.828125 18.15625 -1.109375 20.96875 -1.109375 C 21.09375 -1.109375 21.15625 -0.921875 21.15625 -0.546875 C 21.15625 -0.179688 21.09375 0 20.96875 0 C 19.257812 0 17.941406 -0.03125 17.015625 -0.09375 L 12.046875 -0.1875 L 7.078125 -0.09375 C 6.222656 -0.03125 5 0 3.40625 0 C 3.21875 0 3.125 -0.179688 3.125 -0.546875 C 3.125 -0.921875 3.21875 -1.109375 3.40625 -1.109375 C 5.914062 -1.109375 7.785156 -1.84375 9.015625 -3.3125 C 10.242188 -4.78125 10.890625 -7.109375 10.953125 -10.296875 L 11.78125 -52.15625 C 9.9375 -54.976562 7.359375 -56.390625 4.046875 -56.390625 C 3.859375 -56.390625 3.765625 -56.570312 3.765625 -56.9375 C 3.765625 -57.3125 3.859375 -57.5 4.046875 -57.5 L 7.640625 -57.40625 C 8.304688 -57.34375 9.191406 -57.3125 10.296875 -57.3125 C 11.523438 -57.3125 12.550781 -57.34375 13.375 -57.40625 C 14.207031 -57.46875 14.867188 -57.5 15.359375 -57.5 C 16.160156 -57.5 16.804688 -57.222656 17.296875 -56.671875 C 17.785156 -56.117188 18.550781 -54.800781 19.59375 -52.71875 L 40.109375 -10.390625 L 59.609375 -55.203125 C 60.285156 -56.734375 61.207031 -57.5 62.375 -57.5 C 62.6875 -57.5 63.144531 -57.46875 63.75 -57.40625 C 64.363281 -57.34375 65.160156 -57.3125 66.140625 -57.3125 L 70.75 -57.40625 C 71.425781 -57.46875 72.46875 -57.5 73.875 -57.5 C 74 -57.5 74.0625 -57.3125 74.0625 -56.9375 C 74.0625 -56.570312 74 -56.390625 73.875 -56.390625 C 70.8125 -56.390625 68.617188 -55.914062 67.296875 -54.96875 C 65.972656 -54.019531 65.34375 -52.316406 65.40625 -49.859375 L 67.34375 -7.453125 C 67.46875 -5.546875 67.710938 -4.164062 68.078125 -3.3125 C 68.441406 -2.457031 69.128906 -1.875 70.140625 -1.5625 C 71.160156 -1.257812 72.804688 -1.109375 75.078125 -1.109375 Z M 75.078125 -1.109375 "/></g></g></g><g fill="#1a1a1a" fill-opacity="1"><g transform="translate(685.682869, 723.928502)"><g><path d="M 64.578125 -1.109375 C 64.828125 -1.109375 64.953125 -0.921875 64.953125 -0.546875 C 64.953125 -0.179688 64.828125 0 64.578125 0 C 63.421875 0 61.613281 -0.0625 59.15625 -0.1875 C 56.695312 -0.3125 54.890625 -0.375 53.734375 -0.375 C 52.316406 -0.375 50.566406 -0.3125 48.484375 -0.1875 C 46.523438 -0.0625 44.992188 0 43.890625 0 C 43.640625 0 43.515625 -0.179688 43.515625 -0.546875 C 43.515625 -0.921875 43.640625 -1.109375 43.890625 -1.109375 C 46.097656 -1.109375 47.675781 -1.304688 48.625 -1.703125 C 49.570312 -2.097656 50.046875 -2.816406 50.046875 -3.859375 C 50.046875 -4.785156 49.617188 -6.164062 48.765625 -8 L 40.84375 -24.5625 L 18.859375 -24.5625 L 13.4375 -11.953125 C 12.632812 -10.117188 12.234375 -8.4375 12.234375 -6.90625 C 12.234375 -3.039062 15.207031 -1.109375 21.15625 -1.109375 C 21.46875 -1.109375 21.625 -0.921875 21.625 -0.546875 C 21.625 -0.179688 21.46875 0 21.15625 0 C 20.050781 0 18.457031 -0.0625 16.375 -0.1875 C 14.039062 -0.3125 12.015625 -0.375 10.296875 -0.375 C 8.765625 -0.375 6.894531 -0.3125 4.6875 -0.1875 C 2.851562 -0.0625 1.289062 0 0 0 C -0.300781 0 -0.453125 -0.179688 -0.453125 -0.546875 C -0.453125 -0.921875 -0.300781 -1.109375 0 -1.109375 C 1.71875 -1.109375 3.171875 -1.425781 4.359375 -2.0625 C 5.554688 -2.707031 6.707031 -3.859375 7.8125 -5.515625 C 8.914062 -7.171875 10.144531 -9.59375 11.5 -12.78125 L 30.90625 -58.234375 C 31.03125 -58.421875 31.273438 -58.515625 31.640625 -58.515625 C 32.015625 -58.515625 32.234375 -58.421875 32.296875 -58.234375 L 54.1875 -12.609375 C 56.269531 -8.128906 58.046875 -5.09375 59.515625 -3.5 C 60.992188 -1.90625 62.679688 -1.109375 64.578125 -1.109375 Z M 19.6875 -26.5 L 39.921875 -26.5 L 29.25 -48.765625 Z M 19.6875 -26.5 "/></g></g></g><g fill="#1a1a1a" fill-opacity="1"><g transform="translate(750.468405, 723.928502)"><g><path d="M 13.796875 -47.015625 C 13.796875 -44.679688 14.378906 -42.625 15.546875 -40.84375 C 16.710938 -39.070312 18.125 -37.570312 19.78125 -36.34375 C 21.4375 -35.113281 23.765625 -33.609375 26.765625 -31.828125 C 29.898438 -29.929688 32.351562 -28.304688 34.125 -26.953125 C 35.90625 -25.609375 37.425781 -23.921875 38.6875 -21.890625 C 39.945312 -19.867188 40.578125 -17.476562 40.578125 -14.71875 C 40.578125 -11.71875 39.820312 -9.019531 38.3125 -6.625 C 36.8125 -4.226562 34.617188 -2.335938 31.734375 -0.953125 C 28.859375 0.421875 25.457031 1.109375 21.53125 1.109375 C 16.5625 1.109375 12.144531 0.00390625 8.28125 -2.203125 C 7.96875 -2.390625 7.75 -2.601562 7.625 -2.84375 C 7.507812 -3.09375 7.421875 -3.460938 7.359375 -3.953125 L 6.34375 -16.84375 C 6.28125 -17.082031 6.414062 -17.234375 6.75 -17.296875 C 7.09375 -17.359375 7.296875 -17.265625 7.359375 -17.015625 C 8.585938 -12.484375 10.519531 -8.601562 13.15625 -5.375 C 15.789062 -2.15625 19.285156 -0.546875 23.640625 -0.546875 C 26.648438 -0.546875 29.164062 -1.34375 31.1875 -2.9375 C 33.207031 -4.539062 34.21875 -7.148438 34.21875 -10.765625 C 34.21875 -13.523438 33.601562 -15.898438 32.375 -17.890625 C 31.15625 -19.890625 29.671875 -21.578125 27.921875 -22.953125 C 26.171875 -24.335938 23.796875 -25.914062 20.796875 -27.6875 C 17.785156 -29.59375 15.453125 -31.171875 13.796875 -32.421875 C 12.140625 -33.679688 10.726562 -35.273438 9.5625 -37.203125 C 8.394531 -39.140625 7.8125 -41.425781 7.8125 -44.0625 C 7.8125 -47.195312 8.640625 -49.851562 10.296875 -52.03125 C 11.953125 -54.207031 14.128906 -55.832031 16.828125 -56.90625 C 19.535156 -57.976562 22.390625 -58.515625 25.390625 -58.515625 C 29.191406 -58.515625 32.84375 -57.804688 36.34375 -56.390625 C 37.257812 -55.960938 37.71875 -55.410156 37.71875 -54.734375 L 38.265625 -43.703125 C 38.265625 -43.453125 38.097656 -43.296875 37.765625 -43.234375 C 37.429688 -43.171875 37.234375 -43.265625 37.171875 -43.515625 C 36.554688 -46.765625 35.175781 -49.832031 33.03125 -52.71875 C 30.882812 -55.601562 27.785156 -57.046875 23.734375 -57.046875 C 20.484375 -57.046875 18.015625 -56.09375 16.328125 -54.1875 C 14.640625 -52.289062 13.796875 -49.898438 13.796875 -47.015625 Z M 13.796875 -47.015625 "/></g></g></g><g fill="#1a1a1a" fill-opacity="1"><g transform="translate(796.027559, 723.928502)"><g><path d="M 13.796875 -47.015625 C 13.796875 -44.679688 14.378906 -42.625 15.546875 -40.84375 C 16.710938 -39.070312 18.125 -37.570312 19.78125 -36.34375 C 21.4375 -35.113281 23.765625 -33.609375 26.765625 -31.828125 C 29.898438 -29.929688 32.351562 -28.304688 34.125 -26.953125 C 35.90625 -25.609375 37.425781 -23.921875 38.6875 -21.890625 C 39.945312 -19.867188 40.578125 -17.476562 40.578125 -14.71875 C 40.578125 -11.71875 39.820312 -9.019531 38.3125 -6.625 C 36.8125 -4.226562 34.617188 -2.335938 31.734375 -0.953125 C 28.859375 0.421875 25.457031 1.109375 21.53125 1.109375 C 16.5625 1.109375 12.144531 0.00390625 8.28125 -2.203125 C 7.96875 -2.390625 7.75 -2.601562 7.625 -2.84375 C 7.507812 -3.09375 7.421875 -3.460938 7.359375 -3.953125 L 6.34375 -16.84375 C 6.28125 -17.082031 6.414062 -17.234375 6.75 -17.296875 C 7.09375 -17.359375 7.296875 -17.265625 7.359375 -17.015625 C 8.585938 -12.484375 10.519531 -8.601562 13.15625 -5.375 C 15.789062 -2.15625 19.285156 -0.546875 23.640625 -0.546875 C 26.648438 -0.546875 29.164062 -1.34375 31.1875 -2.9375 C 33.207031 -4.539062 34.21875 -7.148438 34.21875 -10.765625 C 34.21875 -13.523438 33.601562 -15.898438 32.375 -17.890625 C 31.15625 -19.890625 29.671875 -21.578125 27.921875 -22.953125 C 26.171875 -24.335938 23.796875 -25.914062 20.796875 -27.6875 C 17.785156 -29.59375 15.453125 -31.171875 13.796875 -32.421875 C 12.140625 -33.679688 10.726562 -35.273438 9.5625 -37.203125 C 8.394531 -39.140625 7.8125 -41.425781 7.8125 -44.0625 C 7.8125 -47.195312 8.640625 -49.851562 10.296875 -52.03125 C 11.953125 -54.207031 14.128906 -55.832031 16.828125 -56.90625 C 19.535156 -57.976562 22.390625 -58.515625 25.390625 -58.515625 C 29.191406 -58.515625 32.84375 -57.804688 36.34375 -56.390625 C 37.257812 -55.960938 37.71875 -55.410156 37.71875 -54.734375 L 38.265625 -43.703125 C 38.265625 -43.453125 38.097656 -43.296875 37.765625 -43.234375 C 37.429688 -43.171875 37.234375 -43.265625 37.171875 -43.515625 C 36.554688 -46.765625 35.175781 -49.832031 33.03125 -52.71875 C 30.882812 -55.601562 27.785156 -57.046875 23.734375 -57.046875 C 20.484375 -57.046875 18.015625 -56.09375 16.328125 -54.1875 C 14.640625 -52.289062 13.796875 -49.898438 13.796875 -47.015625 Z M 13.796875 -47.015625 "/></g></g></g><g fill="#1a1a1a" fill-opacity="1"><g transform="translate(841.586725, 723.928502)"><g><path d="M 33.671875 1.109375 C 27.960938 1.109375 22.882812 -0.222656 18.4375 -2.890625 C 14 -5.566406 10.566406 -9.1875 8.140625 -13.75 C 5.722656 -18.320312 4.515625 -23.304688 4.515625 -28.703125 C 4.515625 -35.023438 6.109375 -40.4375 9.296875 -44.9375 C 12.484375 -49.445312 16.578125 -52.835938 21.578125 -55.109375 C 26.578125 -57.378906 31.679688 -58.515625 36.890625 -58.515625 C 42.710938 -58.515625 47.832031 -57.148438 52.25 -54.421875 C 56.664062 -51.691406 60.054688 -48.085938 62.421875 -43.609375 C 64.785156 -39.128906 65.96875 -34.375 65.96875 -29.34375 C 65.96875 -23.757812 64.492188 -18.632812 61.546875 -13.96875 C 58.597656 -9.3125 54.65625 -5.632812 49.71875 -2.9375 C 44.78125 -0.238281 39.429688 1.109375 33.671875 1.109375 Z M 36.890625 -0.921875 C 40.941406 -0.921875 44.578125 -1.929688 47.796875 -3.953125 C 51.015625 -5.972656 53.554688 -8.929688 55.421875 -12.828125 C 57.296875 -16.722656 58.234375 -21.367188 58.234375 -26.765625 C 58.234375 -32.472656 57.207031 -37.566406 55.15625 -42.046875 C 53.101562 -46.523438 50.171875 -50.019531 46.359375 -52.53125 C 42.554688 -55.039062 38.144531 -56.296875 33.125 -56.296875 C 26.5625 -56.296875 21.4375 -54.132812 17.75 -49.8125 C 14.070312 -45.488281 12.234375 -39.523438 12.234375 -31.921875 C 12.234375 -26.160156 13.273438 -20.914062 15.359375 -16.1875 C 17.441406 -11.46875 20.351562 -7.742188 24.09375 -5.015625 C 27.84375 -2.285156 32.109375 -0.921875 36.890625 -0.921875 Z M 36.890625 -0.921875 "/></g></g></g><g fill="#1a1a1a" fill-opacity="1"><g transform="translate(912.075779, 723.928502)"><g><path d="M 65.046875 -57.5 C 65.222656 -57.5 65.3125 -57.3125 65.3125 -56.9375 C 65.3125 -56.570312 65.222656 -56.390625 65.046875 -56.390625 C 62.523438 -56.390625 60.664062 -55.640625 59.46875 -54.140625 C 58.28125 -52.640625 57.6875 -50.296875 57.6875 -47.109375 L 57.6875 1.109375 C 57.6875 1.285156 57.53125 1.40625 57.21875 1.46875 C 56.914062 1.53125 56.703125 1.5 56.578125 1.375 L 13.703125 -49.953125 L 13.4375 -50.328125 L 13.4375 -10.296875 C 13.4375 -7.109375 14.015625 -4.78125 15.171875 -3.3125 C 16.335938 -1.84375 18.148438 -1.109375 20.609375 -1.109375 C 20.796875 -1.109375 20.890625 -0.921875 20.890625 -0.546875 C 20.890625 -0.179688 20.796875 0 20.609375 0 C 19.140625 0 17.972656 -0.03125 17.109375 -0.09375 L 12.421875 -0.1875 L 7.546875 -0.09375 C 6.617188 -0.03125 5.300781 0 3.59375 0 C 3.46875 0 3.40625 -0.179688 3.40625 -0.546875 C 3.40625 -0.921875 3.46875 -1.109375 3.59375 -1.109375 C 6.226562 -1.109375 8.140625 -1.84375 9.328125 -3.3125 C 10.523438 -4.78125 11.125 -7.109375 11.125 -10.296875 L 11.125 -52.71875 C 8.613281 -55.164062 6.070312 -56.390625 3.5 -56.390625 C 3.3125 -56.390625 3.21875 -56.570312 3.21875 -56.9375 C 3.21875 -57.3125 3.3125 -57.5 3.5 -57.5 L 6.90625 -57.40625 C 7.632812 -57.34375 8.675781 -57.3125 10.03125 -57.3125 L 14.359375 -57.40625 C 14.847656 -57.46875 15.488281 -57.5 16.28125 -57.5 C 16.769531 -57.5 17.117188 -57.390625 17.328125 -57.171875 C 17.546875 -56.960938 17.90625 -56.488281 18.40625 -55.75 C 19.132812 -54.644531 19.867188 -53.632812 20.609375 -52.71875 L 55.390625 -10.578125 L 55.390625 -47.109375 C 55.390625 -50.296875 54.835938 -52.640625 53.734375 -54.140625 C 52.628906 -55.640625 50.816406 -56.390625 48.296875 -56.390625 C 48.171875 -56.390625 48.109375 -56.570312 48.109375 -56.9375 C 48.109375 -57.3125 48.171875 -57.5 48.296875 -57.5 L 51.890625 -57.40625 C 53.847656 -57.28125 55.410156 -57.21875 56.578125 -57.21875 C 57.742188 -57.21875 59.304688 -57.28125 61.265625 -57.40625 Z M 65.046875 -57.5 "/></g></g></g><g fill="#1a1a1a" fill-opacity="1"><g transform="translate(979.069121, 723.928502)"><g/></g></g><g fill="#1a1a1a" fill-opacity="1"><g transform="translate(1000.618298, 723.928502)"><g><path d="M 66.609375 -1.109375 C 66.796875 -1.109375 66.890625 -0.921875 66.890625 -0.546875 C 66.890625 -0.179688 66.796875 0 66.609375 0 C 64.640625 0 63.109375 -0.03125 62.015625 -0.09375 L 55.46875 -0.1875 L 48.390625 -0.09375 C 47.347656 -0.03125 45.90625 0 44.0625 0 C 43.882812 0 43.796875 -0.179688 43.796875 -0.546875 C 43.796875 -0.921875 43.882812 -1.109375 44.0625 -1.109375 C 46.457031 -1.109375 48.191406 -1.257812 49.265625 -1.5625 C 50.335938 -1.875 51.070312 -2.472656 51.46875 -3.359375 C 51.875 -4.242188 52.078125 -5.609375 52.078125 -7.453125 L 52.078125 -28.890625 L 17.75 -28.890625 L 17.75 -7.453125 C 17.75 -5.609375 17.945312 -4.242188 18.34375 -3.359375 C 18.75 -2.472656 19.488281 -1.875 20.5625 -1.5625 C 21.632812 -1.257812 23.367188 -1.109375 25.765625 -1.109375 C 25.878906 -1.109375 25.9375 -0.921875 25.9375 -0.546875 C 25.9375 -0.179688 25.878906 0 25.765625 0 C 23.796875 0 22.257812 -0.03125 21.15625 -0.09375 L 14.265625 -0.1875 L 7.8125 -0.09375 C 6.707031 -0.03125 5.144531 0 3.125 0 C 3 0 2.9375 -0.179688 2.9375 -0.546875 C 2.9375 -0.921875 3 -1.109375 3.125 -1.109375 C 5.457031 -1.109375 7.160156 -1.257812 8.234375 -1.5625 C 9.304688 -1.875 10.039062 -2.472656 10.4375 -3.359375 C 10.84375 -4.242188 11.046875 -5.609375 11.046875 -7.453125 L 11.046875 -50.046875 C 11.046875 -51.890625 10.84375 -53.238281 10.4375 -54.09375 C 10.039062 -54.957031 9.304688 -55.554688 8.234375 -55.890625 C 7.160156 -56.222656 5.488281 -56.390625 3.21875 -56.390625 C 3.09375 -56.390625 3.03125 -56.570312 3.03125 -56.9375 C 3.03125 -57.3125 3.09375 -57.5 3.21875 -57.5 L 7.90625 -57.40625 C 10.488281 -57.28125 12.609375 -57.21875 14.265625 -57.21875 C 16.097656 -57.21875 18.425781 -57.28125 21.25 -57.40625 L 25.765625 -57.5 C 25.878906 -57.5 25.9375 -57.3125 25.9375 -56.9375 C 25.9375 -56.570312 25.878906 -56.390625 25.765625 -56.390625 C 23.429688 -56.390625 21.710938 -56.207031 20.609375 -55.84375 C 19.503906 -55.476562 18.75 -54.847656 18.34375 -53.953125 C 17.945312 -53.066406 17.75 -51.703125 17.75 -49.859375 L 17.75 -30.90625 L 52.078125 -30.90625 L 52.078125 -49.859375 C 52.078125 -51.703125 51.875 -53.066406 51.46875 -53.953125 C 51.070312 -54.847656 50.320312 -55.476562 49.21875 -55.84375 C 48.113281 -56.207031 46.394531 -56.390625 44.0625 -56.390625 C 43.882812 -56.390625 43.796875 -56.570312 43.796875 -56.9375 C 43.796875 -57.3125 43.882812 -57.5 44.0625 -57.5 L 48.390625 -57.40625 C 51.085938 -57.28125 53.445312 -57.21875 55.46875 -57.21875 C 57.125 -57.21875 59.304688 -57.28125 62.015625 -57.40625 L 66.609375 -57.5 C 66.796875 -57.5 66.890625 -57.3125 66.890625 -56.9375 C 66.890625 -56.570312 66.796875 -56.390625 66.609375 -56.390625 C 64.273438 -56.390625 62.570312 -56.222656 61.5 -55.890625 C 60.425781 -55.554688 59.691406 -54.957031 59.296875 -54.09375 C 58.898438 -53.238281 58.703125 -51.890625 58.703125 -50.046875 L 58.703125 -7.453125 C 58.703125 -5.609375 58.898438 -4.242188 59.296875 -3.359375 C 59.691406 -2.472656 60.425781 -1.875 61.5 -1.5625 C 62.570312 -1.257812 64.273438 -1.109375 66.609375 -1.109375 Z M 66.609375 -1.109375 "/></g></g></g><g fill="#1a1a1a" fill-opacity="1"><g transform="translate(1070.555426, 723.928502)"><g><path d="M 33.671875 1.109375 C 27.960938 1.109375 22.882812 -0.222656 18.4375 -2.890625 C 14 -5.566406 10.566406 -9.1875 8.140625 -13.75 C 5.722656 -18.320312 4.515625 -23.304688 4.515625 -28.703125 C 4.515625 -35.023438 6.109375 -40.4375 9.296875 -44.9375 C 12.484375 -49.445312 16.578125 -52.835938 21.578125 -55.109375 C 26.578125 -57.378906 31.679688 -58.515625 36.890625 -58.515625 C 42.710938 -58.515625 47.832031 -57.148438 52.25 -54.421875 C 56.664062 -51.691406 60.054688 -48.085938 62.421875 -43.609375 C 64.785156 -39.128906 65.96875 -34.375 65.96875 -29.34375 C 65.96875 -23.757812 64.492188 -18.632812 61.546875 -13.96875 C 58.597656 -9.3125 54.65625 -5.632812 49.71875 -2.9375 C 44.78125 -0.238281 39.429688 1.109375 33.671875 1.109375 Z M 36.890625 -0.921875 C 40.941406 -0.921875 44.578125 -1.929688 47.796875 -3.953125 C 51.015625 -5.972656 53.554688 -8.929688 55.421875 -12.828125 C 57.296875 -16.722656 58.234375 -21.367188 58.234375 -26.765625 C 58.234375 -32.472656 57.207031 -37.566406 55.15625 -42.046875 C 53.101562 -46.523438 50.171875 -50.019531 46.359375 -52.53125 C 42.554688 -55.039062 38.144531 -56.296875 33.125 -56.296875 C 26.5625 -56.296875 21.4375 -54.132812 17.75 -49.8125 C 14.070312 -45.488281 12.234375 -39.523438 12.234375 -31.921875 C 12.234375 -26.160156 13.273438 -20.914062 15.359375 -16.1875 C 17.441406 -11.46875 20.351562 -7.742188 24.09375 -5.015625 C 27.84375 -2.285156 32.109375 -0.921875 36.890625 -0.921875 Z M 36.890625 -0.921875 "/></g></g></g><g fill="#1a1a1a" fill-opacity="1"><g transform="translate(1141.044434, 723.928502)"><g><path d="M 75.078125 -1.109375 C 75.253906 -1.109375 75.34375 -0.921875 75.34375 -0.546875 C 75.34375 -0.179688 75.253906 0 75.078125 0 C 73.109375 0 71.539062 -0.03125 70.375 -0.09375 L 64.03125 -0.1875 L 57.875 -0.09375 C 56.882812 -0.03125 55.503906 0 53.734375 0 C 53.609375 0 53.546875 -0.179688 53.546875 -0.546875 C 53.546875 -0.921875 53.609375 -1.109375 53.734375 -1.109375 C 55.816406 -1.109375 57.347656 -1.273438 58.328125 -1.609375 C 59.304688 -1.941406 59.960938 -2.535156 60.296875 -3.390625 C 60.640625 -4.253906 60.75 -5.609375 60.625 -7.453125 L 58.875 -48.390625 L 38.265625 -0.640625 C 38.148438 -0.398438 37.90625 -0.28125 37.53125 -0.28125 C 37.226562 -0.28125 36.953125 -0.398438 36.703125 -0.640625 L 13.984375 -48.203125 L 13.25 -10.296875 C 13.1875 -7.046875 13.753906 -4.703125 14.953125 -3.265625 C 16.148438 -1.828125 18.15625 -1.109375 20.96875 -1.109375 C 21.09375 -1.109375 21.15625 -0.921875 21.15625 -0.546875 C 21.15625 -0.179688 21.09375 0 20.96875 0 C 19.257812 0 17.941406 -0.03125 17.015625 -0.09375 L 12.046875 -0.1875 L 7.078125 -0.09375 C 6.222656 -0.03125 5 0 3.40625 0 C 3.21875 0 3.125 -0.179688 3.125 -0.546875 C 3.125 -0.921875 3.21875 -1.109375 3.40625 -1.109375 C 5.914062 -1.109375 7.785156 -1.84375 9.015625 -3.3125 C 10.242188 -4.78125 10.890625 -7.109375 10.953125 -10.296875 L 11.78125 -52.15625 C 9.9375 -54.976562 7.359375 -56.390625 4.046875 -56.390625 C 3.859375 -56.390625 3.765625 -56.570312 3.765625 -56.9375 C 3.765625 -57.3125 3.859375 -57.5 4.046875 -57.5 L 7.640625 -57.40625 C 8.304688 -57.34375 9.191406 -57.3125 10.296875 -57.3125 C 11.523438 -57.3125 12.550781 -57.34375 13.375 -57.40625 C 14.207031 -57.46875 14.867188 -57.5 15.359375 -57.5 C 16.160156 -57.5 16.804688 -57.222656 17.296875 -56.671875 C 17.785156 -56.117188 18.550781 -54.800781 19.59375 -52.71875 L 40.109375 -10.390625 L 59.609375 -55.203125 C 60.285156 -56.734375 61.207031 -57.5 62.375 -57.5 C 62.6875 -57.5 63.144531 -57.46875 63.75 -57.40625 C 64.363281 -57.34375 65.160156 -57.3125 66.140625 -57.3125 L 70.75 -57.40625 C 71.425781 -57.46875 72.46875 -57.5 73.875 -57.5 C 74 -57.5 74.0625 -57.3125 74.0625 -56.9375 C 74.0625 -56.570312 74 -56.390625 73.875 -56.390625 C 70.8125 -56.390625 68.617188 -55.914062 67.296875 -54.96875 C 65.972656 -54.019531 65.34375 -52.316406 65.40625 -49.859375 L 67.34375 -7.453125 C 67.46875 -5.546875 67.710938 -4.164062 68.078125 -3.3125 C 68.441406 -2.457031 69.128906 -1.875 70.140625 -1.5625 C 71.160156 -1.257812 72.804688 -1.109375 75.078125 -1.109375 Z M 75.078125 -1.109375 "/></g></g></g><g fill="#1a1a1a" fill-opacity="1"><g transform="translate(1218.248925, 723.928502)"><g><path d="M 44.0625 -13.796875 C 44.0625 -13.984375 44.242188 -14.0625 44.609375 -14.03125 C 44.984375 -14 45.171875 -13.890625 45.171875 -13.703125 C 44.617188 -9.722656 44.34375 -5.613281 44.34375 -1.375 C 44.34375 -0.882812 44.234375 -0.53125 44.015625 -0.3125 C 43.804688 -0.101562 43.425781 0 42.875 0 L 3.953125 0 C 3.828125 0 3.765625 -0.179688 3.765625 -0.546875 C 3.765625 -0.921875 3.828125 -1.109375 3.953125 -1.109375 C 6.222656 -1.109375 7.878906 -1.257812 8.921875 -1.5625 C 9.960938 -1.875 10.664062 -2.472656 11.03125 -3.359375 C 11.40625 -4.242188 11.59375 -5.609375 11.59375 -7.453125 L 11.59375 -50.046875 C 11.59375 -51.890625 11.40625 -53.238281 11.03125 -54.09375 C 10.664062 -54.957031 9.960938 -55.554688 8.921875 -55.890625 C 7.878906 -56.222656 6.222656 -56.390625 3.953125 -56.390625 C 3.828125 -56.390625 3.765625 -56.570312 3.765625 -56.9375 C 3.765625 -57.3125 3.828125 -57.5 3.953125 -57.5 L 41.3125 -57.5 C 41.863281 -57.5 42.140625 -57.222656 42.140625 -56.671875 L 42.3125 -45.171875 C 42.3125 -44.984375 42.144531 -44.890625 41.8125 -44.890625 C 41.476562 -44.890625 41.3125 -44.984375 41.3125 -45.171875 C 40.9375 -48.484375 39.796875 -51.023438 37.890625 -52.796875 C 35.992188 -54.578125 33.515625 -55.46875 30.453125 -55.46875 L 25.390625 -55.46875 C 22.503906 -55.46875 20.601562 -55.066406 19.6875 -54.265625 C 18.769531 -53.472656 18.3125 -51.945312 18.3125 -49.6875 L 18.3125 -30.90625 L 28.890625 -30.90625 C 31.953125 -30.90625 34.171875 -31.425781 35.546875 -32.46875 C 36.929688 -33.519531 37.625 -35.207031 37.625 -37.53125 C 37.625 -37.65625 37.804688 -37.71875 38.171875 -37.71875 C 38.546875 -37.71875 38.734375 -37.65625 38.734375 -37.53125 L 38.640625 -29.90625 C 38.640625 -28.125 38.671875 -26.773438 38.734375 -25.859375 L 38.828125 -21.25 C 38.828125 -21.125 38.640625 -21.0625 38.265625 -21.0625 C 37.898438 -21.0625 37.71875 -21.125 37.71875 -21.25 C 37.71875 -23.945312 37.007812 -25.894531 35.59375 -27.09375 C 34.1875 -28.289062 31.890625 -28.890625 28.703125 -28.890625 L 18.3125 -28.890625 L 18.3125 -7.8125 C 18.3125 -6.21875 18.492188 -5.019531 18.859375 -4.21875 C 19.222656 -3.425781 19.863281 -2.863281 20.78125 -2.53125 C 21.707031 -2.195312 23.125 -2.03125 25.03125 -2.03125 L 31.5625 -2.03125 C 34.8125 -2.03125 37.507812 -3.054688 39.65625 -5.109375 C 41.800781 -7.160156 43.269531 -10.054688 44.0625 -13.796875 Z M 44.0625 -13.796875 "/></g></g></g><g fill="#1a1a1a" fill-opacity="1"><g transform="translate(1267.947774, 723.928502)"><g><path d="M 13.796875 -47.015625 C 13.796875 -44.679688 14.378906 -42.625 15.546875 -40.84375 C 16.710938 -39.070312 18.125 -37.570312 19.78125 -36.34375 C 21.4375 -35.113281 23.765625 -33.609375 26.765625 -31.828125 C 29.898438 -29.929688 32.351562 -28.304688 34.125 -26.953125 C 35.90625 -25.609375 37.425781 -23.921875 38.6875 -21.890625 C 39.945312 -19.867188 40.578125 -17.476562 40.578125 -14.71875 C 40.578125 -11.71875 39.820312 -9.019531 38.3125 -6.625 C 36.8125 -4.226562 34.617188 -2.335938 31.734375 -0.953125 C 28.859375 0.421875 25.457031 1.109375 21.53125 1.109375 C 16.5625 1.109375 12.144531 0.00390625 8.28125 -2.203125 C 7.96875 -2.390625 7.75 -2.601562 7.625 -2.84375 C 7.507812 -3.09375 7.421875 -3.460938 7.359375 -3.953125 L 6.34375 -16.84375 C 6.28125 -17.082031 6.414062 -17.234375 6.75 -17.296875 C 7.09375 -17.359375 7.296875 -17.265625 7.359375 -17.015625 C 8.585938 -12.484375 10.519531 -8.601562 13.15625 -5.375 C 15.789062 -2.15625 19.285156 -0.546875 23.640625 -0.546875 C 26.648438 -0.546875 29.164062 -1.34375 31.1875 -2.9375 C 33.207031 -4.539062 34.21875 -7.148438 34.21875 -10.765625 C 34.21875 -13.523438 33.601562 -15.898438 32.375 -17.890625 C 31.15625 -19.890625 29.671875 -21.578125 27.921875 -22.953125 C 26.171875 -24.335938 23.796875 -25.914062 20.796875 -27.6875 C 17.785156 -29.59375 15.453125 -31.171875 13.796875 -32.421875 C 12.140625 -33.679688 10.726562 -35.273438 9.5625 -37.203125 C 8.394531 -39.140625 7.8125 -41.425781 7.8125 -44.0625 C 7.8125 -47.195312 8.640625 -49.851562 10.296875 -52.03125 C 11.953125 -54.207031 14.128906 -55.832031 16.828125 -56.90625 C 19.535156 -57.976562 22.390625 -58.515625 25.390625 -58.515625 C 29.191406 -58.515625 32.84375 -57.804688 36.34375 -56.390625 C 37.257812 -55.960938 37.71875 -55.410156 37.71875 -54.734375 L 38.265625 -43.703125 C 38.265625 -43.453125 38.097656 -43.296875 37.765625 -43.234375 C 37.429688 -43.171875 37.234375 -43.265625 37.171875 -43.515625 C 36.554688 -46.765625 35.175781 -49.832031 33.03125 -52.71875 C 30.882812 -55.601562 27.785156 -57.046875 23.734375 -57.046875 C 20.484375 -57.046875 18.015625 -56.09375 16.328125 -54.1875 C 14.640625 -52.289062 13.796875 -49.898438 13.796875 -47.015625 Z M 13.796875 -47.015625 "/></g></g></g><g fill="#1a1a1a" fill-opacity="1"><g transform="translate(761.144261, 768.572722)"><g><path d="M 2.515625 0 L 2.515625 -19.171875 L 14.984375 -19.171875 L 14.984375 -17.921875 L 3.890625 -17.921875 L 3.890625 -10.3125 L 13.3125 -10.3125 L 13.3125 -9.125 L 3.890625 -9.125 L 3.890625 0 Z M 2.515625 0 "/></g></g></g><g fill="#1a1a1a" fill-opacity="1"><g transform="translate(782.582259, 768.572722)"><g><path d="M 2.515625 0 L 2.515625 -19.171875 L 3.890625 -19.171875 L 3.890625 -1.234375 L 15.34375 -1.234375 L 15.34375 0 Z M 2.515625 0 "/></g></g></g><g fill="#1a1a1a" fill-opacity="1"><g transform="translate(803.669255, 768.572722)"><g><path d="M 8.53125 -19.171875 L 9.71875 -19.171875 L 17.8125 0 L 16.359375 0 L 13.6875 -6.3125 L 4.53125 -6.3125 L 1.859375 0 L 0.375 0 Z M 13.3125 -7.453125 L 9.125 -17.5 L 4.859375 -7.453125 Z M 13.3125 -7.453125 "/></g></g></g><g fill="#1a1a1a" fill-opacity="1"><g transform="translate(825.431257, 768.572722)"><g><path d="M 15.90625 -17.921875 L 8.890625 -17.921875 L 8.890625 0 L 7.5 0 L 7.5 -17.921875 L 0.484375 -17.921875 L 0.484375 -19.171875 L 15.90625 -19.171875 Z M 15.90625 -17.921875 "/></g></g></g><g fill="#1a1a1a" fill-opacity="1"><g transform="translate(846.410255, 768.572722)"><g/></g></g><g fill="#1a1a1a" fill-opacity="1"><g transform="translate(858.749251, 768.572722)"><g><path d="M 2.515625 0 L 2.515625 -19.171875 L 14.984375 -19.171875 L 14.984375 -17.921875 L 3.890625 -17.921875 L 3.890625 -10.3125 L 13.3125 -10.3125 L 13.3125 -9.125 L 3.890625 -9.125 L 3.890625 0 Z M 2.515625 0 "/></g></g></g><g fill="#1a1a1a" fill-opacity="1"><g transform="translate(880.187249, 768.572722)"><g><path d="M 15.28125 -1.234375 L 15.28125 0 L 2.515625 0 L 2.515625 -19.171875 L 15.03125 -19.171875 L 15.03125 -17.921875 L 3.890625 -17.921875 L 3.890625 -10.390625 L 13.640625 -10.390625 L 13.640625 -9.203125 L 3.890625 -9.203125 L 3.890625 -1.234375 Z M 15.28125 -1.234375 "/></g></g></g><g fill="#1a1a1a" fill-opacity="1"><g transform="translate(902.111255, 768.572722)"><g><path d="M 15.28125 -1.234375 L 15.28125 0 L 2.515625 0 L 2.515625 -19.171875 L 15.03125 -19.171875 L 15.03125 -17.921875 L 3.890625 -17.921875 L 3.890625 -10.390625 L 13.640625 -10.390625 L 13.640625 -9.203125 L 3.890625 -9.203125 L 3.890625 -1.234375 Z M 15.28125 -1.234375 "/></g></g></g><g fill="#1a1a1a" fill-opacity="1"><g transform="translate(924.035261, 768.572722)"><g/></g></g><g fill="#1a1a1a" fill-opacity="1"><g transform="translate(936.374256, 768.572722)"><g><path d="M 2.515625 0 L 2.515625 -19.171875 L 10.46875 -19.171875 C 11.300781 -19.171875 12.054688 -19 12.734375 -18.65625 C 13.410156 -18.3125 13.992188 -17.851562 14.484375 -17.28125 C 14.984375 -16.71875 15.367188 -16.085938 15.640625 -15.390625 C 15.921875 -14.691406 16.0625 -13.972656 16.0625 -13.234375 C 16.0625 -12.273438 15.875 -11.378906 15.5 -10.546875 C 15.125 -9.722656 14.597656 -9.03125 13.921875 -8.46875 C 13.242188 -7.914062 12.457031 -7.578125 11.5625 -7.453125 L 16.328125 0 L 14.734375 0 L 10.09375 -7.234375 L 3.890625 -7.234375 L 3.890625 0 Z M 3.890625 -8.5 L 10.609375 -8.5 C 11.441406 -8.5 12.160156 -8.722656 12.765625 -9.171875 C 13.378906 -9.628906 13.851562 -10.21875 14.1875 -10.9375 C 14.519531 -11.65625 14.6875 -12.421875 14.6875 -13.234375 C 14.6875 -14.054688 14.492188 -14.820312 14.109375 -15.53125 C 13.722656 -16.25 13.207031 -16.828125 12.5625 -17.265625 C 11.925781 -17.703125 11.210938 -17.921875 10.421875 -17.921875 L 3.890625 -17.921875 Z M 3.890625 -8.5 "/></g></g></g><g fill="#1a1a1a" fill-opacity="1"><g transform="translate(959.297274, 768.572722)"><g><path d="M 15.28125 -1.234375 L 15.28125 0 L 2.515625 0 L 2.515625 -19.171875 L 15.03125 -19.171875 L 15.03125 -17.921875 L 3.890625 -17.921875 L 3.890625 -10.390625 L 13.640625 -10.390625 L 13.640625 -9.203125 L 3.890625 -9.203125 L 3.890625 -1.234375 Z M 15.28125 -1.234375 "/></g></g></g><g fill="#1a1a1a" fill-opacity="1"><g transform="translate(981.221268, 768.572722)"><g><path d="M 8.53125 -19.171875 L 9.71875 -19.171875 L 17.8125 0 L 16.359375 0 L 13.6875 -6.3125 L 4.53125 -6.3125 L 1.859375 0 L 0.375 0 Z M 13.3125 -7.453125 L 9.125 -17.5 L 4.859375 -7.453125 Z M 13.3125 -7.453125 "/></g></g></g><g fill="#1a1a1a" fill-opacity="1"><g transform="translate(1004.846266, 768.572722)"><g><path d="M 2.515625 0 L 2.515625 -19.171875 L 3.890625 -19.171875 L 3.890625 -1.234375 L 15.34375 -1.234375 L 15.34375 0 Z M 2.515625 0 "/></g></g></g><g fill="#1a1a1a" fill-opacity="1"><g transform="translate(1025.177266, 768.572722)"><g/></g></g><g fill="#1a1a1a" fill-opacity="1"><g transform="translate(1037.516262, 768.572722)"><g><path d="M 15.28125 -1.234375 L 15.28125 0 L 2.515625 0 L 2.515625 -19.171875 L 15.03125 -19.171875 L 15.03125 -17.921875 L 3.890625 -17.921875 L 3.890625 -10.390625 L 13.640625 -10.390625 L 13.640625 -9.203125 L 3.890625 -9.203125 L 3.890625 -1.234375 Z M 15.28125 -1.234375 "/></g></g></g><g fill="#1a1a1a" fill-opacity="1"><g transform="translate(1059.224283, 768.572722)"><g><path d="M 13.65625 -15.984375 C 13.351562 -16.328125 13.007812 -16.628906 12.625 -16.890625 C 12.25 -17.148438 11.84375 -17.363281 11.40625 -17.53125 C 10.976562 -17.707031 10.515625 -17.835938 10.015625 -17.921875 C 9.515625 -18.015625 8.972656 -18.0625 8.390625 -18.0625 C 6.523438 -18.0625 5.164062 -17.707031 4.3125 -17 C 3.457031 -16.289062 3.03125 -15.332031 3.03125 -14.125 C 3.03125 -13.3125 3.222656 -12.664062 3.609375 -12.1875 C 3.992188 -11.707031 4.597656 -11.320312 5.421875 -11.03125 C 6.253906 -10.75 7.328125 -10.472656 8.640625 -10.203125 C 10.023438 -9.921875 11.222656 -9.582031 12.234375 -9.1875 C 13.242188 -8.800781 14.019531 -8.273438 14.5625 -7.609375 C 15.113281 -6.941406 15.390625 -6.039062 15.390625 -4.90625 C 15.390625 -4.0625 15.226562 -3.320312 14.90625 -2.6875 C 14.582031 -2.050781 14.113281 -1.523438 13.5 -1.109375 C 12.882812 -0.691406 12.160156 -0.375 11.328125 -0.15625 C 10.492188 0.0507812 9.5625 0.15625 8.53125 0.15625 C 7.539062 0.15625 6.59375 0.0507812 5.6875 -0.15625 C 4.789062 -0.375 3.945312 -0.691406 3.15625 -1.109375 C 2.363281 -1.523438 1.625 -2.054688 0.9375 -2.703125 L 1.671875 -3.8125 C 2.066406 -3.375 2.507812 -2.988281 3 -2.65625 C 3.5 -2.320312 4.039062 -2.035156 4.625 -1.796875 C 5.21875 -1.566406 5.84375 -1.382812 6.5 -1.25 C 7.164062 -1.113281 7.863281 -1.046875 8.59375 -1.046875 C 10.257812 -1.046875 11.566406 -1.359375 12.515625 -1.984375 C 13.460938 -2.609375 13.9375 -3.53125 13.9375 -4.75 C 13.9375 -5.59375 13.71875 -6.273438 13.28125 -6.796875 C 12.851562 -7.328125 12.1875 -7.757812 11.28125 -8.09375 C 10.382812 -8.425781 9.257812 -8.734375 7.90625 -9.015625 C 6.5625 -9.304688 5.414062 -9.628906 4.46875 -9.984375 C 3.519531 -10.347656 2.804688 -10.832031 2.328125 -11.4375 C 1.859375 -12.050781 1.625 -12.882812 1.625 -13.9375 C 1.625 -15.082031 1.90625 -16.054688 2.46875 -16.859375 C 3.039062 -17.660156 3.835938 -18.269531 4.859375 -18.6875 C 5.890625 -19.101562 7.066406 -19.3125 8.390625 -19.3125 C 9.222656 -19.3125 9.992188 -19.226562 10.703125 -19.0625 C 11.410156 -18.894531 12.066406 -18.644531 12.671875 -18.3125 C 13.273438 -17.976562 13.835938 -17.5625 14.359375 -17.0625 Z M 13.65625 -15.984375 "/></g></g></g><g fill="#1a1a1a" fill-opacity="1"><g transform="translate(1080.878288, 768.572722)"><g><path d="M 15.90625 -17.921875 L 8.890625 -17.921875 L 8.890625 0 L 7.5 0 L 7.5 -17.921875 L 0.484375 -17.921875 L 0.484375 -19.171875 L 15.90625 -19.171875 Z M 15.90625 -17.921875 "/></g></g></g><g fill="#1a1a1a" fill-opacity="1"><g transform="translate(1100.777273, 768.572722)"><g><path d="M 8.53125 -19.171875 L 9.71875 -19.171875 L 17.8125 0 L 16.359375 0 L 13.6875 -6.3125 L 4.53125 -6.3125 L 1.859375 0 L 0.375 0 Z M 13.3125 -7.453125 L 9.125 -17.5 L 4.859375 -7.453125 Z M 13.3125 -7.453125 "/></g></g></g><g fill="#1a1a1a" fill-opacity="1"><g transform="translate(1122.539287, 768.572722)"><g><path d="M 15.90625 -17.921875 L 8.890625 -17.921875 L 8.890625 0 L 7.5 0 L 7.5 -17.921875 L 0.484375 -17.921875 L 0.484375 -19.171875 L 15.90625 -19.171875 Z M 15.90625 -17.921875 "/></g></g></g><g fill="#1a1a1a" fill-opacity="1"><g transform="translate(1144.301302, 768.572722)"><g><path d="M 15.28125 -1.234375 L 15.28125 0 L 2.515625 0 L 2.515625 -19.171875 L 15.03125 -19.171875 L 15.03125 -17.921875 L 3.890625 -17.921875 L 3.890625 -10.390625 L 13.640625 -10.390625 L 13.640625 -9.203125 L 3.890625 -9.203125 L 3.890625 -1.234375 Z M 15.28125 -1.234375 "/></g></g></g><g fill="#1a1a1a" fill-opacity="1"><g transform="translate(238.240164, 721.460318)"><g><path d="M 16.375 0 L 1.640625 -54.09375 L 8.5625 -54.09375 L 17.171875 -20.765625 C 17.628906 -19.023438 18.0625 -17.242188 18.46875 -15.421875 C 18.882812 -13.609375 19.285156 -11.78125 19.671875 -9.9375 C 20.054688 -8.101562 20.421875 -6.21875 20.765625 -4.28125 L 19.96875 -4.28125 C 20.332031 -6.21875 20.707031 -8.101562 21.09375 -9.9375 C 21.476562 -11.78125 21.890625 -13.609375 22.328125 -15.421875 C 22.765625 -17.242188 23.210938 -19.023438 23.671875 -20.765625 L 32.453125 -54.09375 L 40.21875 -54.09375 L 48.9375 -20.765625 C 49.414062 -19.023438 49.867188 -17.242188 50.296875 -15.421875 C 50.722656 -13.609375 51.140625 -11.78125 51.546875 -9.9375 C 51.953125 -8.101562 52.335938 -6.21875 52.703125 -4.28125 L 51.765625 -4.28125 C 52.128906 -6.21875 52.503906 -8.101562 52.890625 -9.9375 C 53.273438 -11.78125 53.6875 -13.609375 54.125 -15.421875 C 54.5625 -17.242188 55 -19.023438 55.4375 -20.765625 L 64 -54.09375 L 71.046875 -54.09375 L 56.234375 0 L 48.28125 0 L 38.953125 -34.40625 C 38.347656 -36.65625 37.765625 -39.078125 37.203125 -41.671875 C 36.648438 -44.265625 36.109375 -47.15625 35.578125 -50.34375 L 37.03125 -50.34375 C 36.5 -47.300781 35.972656 -44.515625 35.453125 -41.984375 C 34.929688 -39.453125 34.332031 -36.925781 33.65625 -34.40625 L 24.359375 0 Z M 16.375 0 "/></g></g></g><g fill="#1a1a1a" fill-opacity="1"><g transform="translate(325.10213, 721.460318)"><g><path d="M 21.53125 0 L 21.53125 -22.1875 L 1.640625 -54.09375 L 9.515625 -54.09375 L 20.25 -36.625 C 21.4375 -34.71875 22.507812 -32.875 23.46875 -31.09375 C 24.425781 -29.3125 25.398438 -27.175781 26.390625 -24.6875 L 23.625 -24.6875 C 24.625 -27.226562 25.597656 -29.394531 26.546875 -31.1875 C 27.503906 -32.976562 28.539062 -34.789062 29.65625 -36.625 L 40.359375 -54.09375 L 48.25 -54.09375 L 28.34375 -22.1875 L 28.34375 0 Z M 21.53125 0 "/></g></g></g><g fill="#1a1a1a" fill-opacity="1"><g transform="translate(389.170877, 721.460318)"><g><path d="M 6.28125 0 L 6.28125 -54.09375 L 14.265625 -54.09375 L 36.34375 -19.34375 C 36.894531 -18.5 37.566406 -17.390625 38.359375 -16.015625 C 39.160156 -14.648438 40.023438 -13.117188 40.953125 -11.421875 C 41.890625 -9.734375 42.804688 -7.945312 43.703125 -6.0625 L 42.796875 -5.765625 C 42.628906 -7.679688 42.503906 -9.570312 42.421875 -11.4375 C 42.335938 -13.300781 42.28125 -15.023438 42.25 -16.609375 C 42.226562 -18.191406 42.21875 -19.492188 42.21875 -20.515625 L 42.21875 -54.09375 L 49 -54.09375 L 49 0 L 40.953125 0 L 21.3125 -30.890625 C 20.488281 -32.203125 19.625 -33.609375 18.71875 -35.109375 C 17.8125 -36.609375 16.769531 -38.382812 15.59375 -40.4375 C 14.414062 -42.5 13.003906 -44.976562 11.359375 -47.875 L 12.53125 -48.28125 C 12.644531 -45.570312 12.742188 -43.082031 12.828125 -40.8125 C 12.910156 -38.550781 12.976562 -36.585938 13.03125 -34.921875 C 13.082031 -33.253906 13.109375 -31.9375 13.109375 -30.96875 L 13.109375 0 Z M 6.28125 0 "/></g></g></g><g fill="#1a1a1a" fill-opacity="1"><g transform="translate(458.647586, 721.460318)"><g><path d="M 23.125 0 L 10.0625 0 L 10.0625 -6.03125 L 22.6875 -6.03125 C 27.09375 -6.03125 30.742188 -6.875 33.640625 -8.5625 C 36.546875 -10.257812 38.710938 -12.6875 40.140625 -15.84375 C 41.578125 -19 42.296875 -22.769531 42.296875 -27.15625 C 42.296875 -31.488281 41.585938 -35.210938 40.171875 -38.328125 C 38.753906 -41.453125 36.644531 -43.851562 33.84375 -45.53125 C 31.050781 -47.21875 27.550781 -48.0625 23.34375 -48.0625 L 9.765625 -48.0625 L 9.765625 -54.09375 L 23.8125 -54.09375 C 29.09375 -54.09375 33.597656 -53.015625 37.328125 -50.859375 C 41.066406 -48.703125 43.9375 -45.609375 45.9375 -41.578125 C 47.9375 -37.546875 48.9375 -32.738281 48.9375 -27.15625 C 48.9375 -21.507812 47.929688 -16.660156 45.921875 -12.609375 C 43.910156 -8.554688 40.976562 -5.441406 37.125 -3.265625 C 33.28125 -1.085938 28.613281 0 23.125 0 Z M 13.109375 -54.09375 L 13.109375 0 L 6.28125 0 L 6.28125 -54.09375 Z M 13.109375 -54.09375 "/></g></g></g><g transform="matrix(1, 0, 0, 1, 246, 731)"><g clip-path="url(#2759d29e3e)"><g fill="#1a1a1a" fill-opacity="1"><g transform="translate(0.393939, 44.569903)"><g><path d="M 4.5625 0 L 4.5625 -33.515625 L 15.1875 -33.515625 C 17.28125 -33.515625 19.085938 -33.097656 20.609375 -32.265625 C 22.128906 -31.441406 23.300781 -30.289062 24.125 -28.8125 C 24.957031 -27.34375 25.375 -25.632812 25.375 -23.6875 C 25.375 -21.75 24.957031 -20.050781 24.125 -18.59375 C 23.300781 -17.144531 22.125 -16.007812 20.59375 -15.1875 C 19.070312 -14.375 17.257812 -13.96875 15.15625 -13.96875 L 5.71875 -13.96875 L 5.71875 -15.921875 L 15.140625 -15.921875 C 16.816406 -15.921875 18.257812 -16.238281 19.46875 -16.875 C 20.6875 -17.507812 21.625 -18.410156 22.28125 -19.578125 C 22.945312 -20.753906 23.28125 -22.125 23.28125 -23.6875 C 23.28125 -25.289062 22.945312 -26.679688 22.28125 -27.859375 C 21.625 -29.035156 20.6875 -29.945312 19.46875 -30.59375 C 18.257812 -31.25 16.804688 -31.578125 15.109375 -31.578125 L 6.65625 -31.578125 L 6.65625 0 Z M 24.203125 0 L 16.03125 -15.203125 L 18.390625 -15.203125 L 26.609375 0 Z M 24.203125 0 "/></g></g></g><g fill="#1a1a1a" fill-opacity="1"><g transform="translate(47.281254, 44.569903)"><g><path d="M 4.5625 0 L 4.5625 -33.515625 L 23.734375 -33.515625 L 23.734375 -31.578125 L 6.65625 -31.578125 L 6.65625 -17.859375 L 22.609375 -17.859375 L 22.609375 -15.90625 L 6.65625 -15.90625 L 6.65625 -1.9375 L 24.046875 -1.9375 L 24.046875 0 Z M 4.5625 0 "/></g></g></g><g fill="#1a1a1a" fill-opacity="1"><g transform="translate(92.617263, 44.569903)"><g><path d="M 1.171875 0 L 13.578125 -33.515625 L 16.171875 -33.515625 L 28.625 0 L 26.40625 0 L 17.5625 -23.953125 C 17.113281 -25.171875 16.644531 -26.476562 16.15625 -27.875 C 15.664062 -29.28125 15.140625 -30.859375 14.578125 -32.609375 L 15.15625 -32.609375 C 14.582031 -30.859375 14.046875 -29.273438 13.546875 -27.859375 C 13.054688 -26.453125 12.597656 -25.148438 12.171875 -23.953125 L 3.390625 0 Z M 6.515625 -10.546875 L 6.515625 -12.453125 L 23.28125 -12.453125 L 23.28125 -10.546875 Z M 6.515625 -10.546875 "/></g></g></g><g fill="#1a1a1a" fill-opacity="1"><g transform="translate(140.831056, 44.569903)"><g><path d="M 4.5625 0 L 4.5625 -33.515625 L 6.6875 -33.515625 L 6.6875 -1.9375 L 23.140625 -1.9375 L 23.140625 0 Z M 4.5625 0 "/></g></g></g><g fill="#1a1a1a" fill-opacity="1"><g transform="translate(180.298067, 44.569903)"><g><path d="M 2.34375 -31.578125 L 2.34375 -33.515625 L 26.1875 -33.515625 L 26.1875 -31.578125 L 15.3125 -31.578125 L 15.3125 0 L 13.21875 0 L 13.21875 -31.578125 Z M 2.34375 -31.578125 "/></g></g></g><g fill="#1a1a1a" fill-opacity="1"><g transform="translate(227.927452, 44.569903)"><g><path d="M 13.78125 0 L 13.78125 -15.15625 L 1.171875 -33.515625 L 3.640625 -33.515625 L 11.265625 -22.453125 C 11.984375 -21.410156 12.664062 -20.382812 13.3125 -19.375 C 13.957031 -18.363281 14.609375 -17.28125 15.265625 -16.125 L 14.4375 -16.125 C 15.09375 -17.289062 15.75 -18.378906 16.40625 -19.390625 C 17.070312 -20.410156 17.75 -21.429688 18.4375 -22.453125 L 26.015625 -33.515625 L 28.5 -33.515625 L 15.90625 -15.15625 L 15.90625 0 Z M 13.78125 0 "/></g></g></g></g></g></svg>